<svg width="365" height="114" viewBox="0 0 365 114" fill="none" xmlns="http://www.w3.org/2000/svg">
<rect x="0.48584" y="29.015" width="28.015" height="28.015" fill="#EAFAEC" fill-opacity="0.05"/>
<rect width="28.015" height="28.015" transform="matrix(-1 0 0 1 56.5156 57.03)" fill="#EAFAEC" fill-opacity="0.05"/>
<rect width="28.015" height="28.015" transform="matrix(-1 0 0 1 112.546 29.015)" fill="#EAFAEC" fill-opacity="0.05"/>
<rect x="112.546" y="85" width="28.015" height="28.015" fill="#EAFAEC" fill-opacity="0.05"/>
<rect x="140.561" y="57.03" width="28.015" height="28.015" fill="#EAFAEC" fill-opacity="0.05"/>
<rect width="28.015" height="28.015" transform="matrix(-1 0 0 1 336.958 56.015)" fill="#EAFAEC" fill-opacity="0.05"/>
<rect width="28.015" height="28.015" transform="matrix(-1 0 0 1 364.958 29.015)" fill="#EAFAEC" fill-opacity="0.05"/>
<rect x="280.928" y="84.0302" width="28.015" height="28.015" fill="#EAFAEC" fill-opacity="0.05"/>
<rect x="224.898" y="28.015" width="28.015" height="28.015" fill="#EAFAEC" fill-opacity="0.05"/>
<rect width="28.015" height="28.015" transform="matrix(-1 0 0 1 224.898 0)" fill="#EAFAEC" fill-opacity="0.05"/>
<rect width="28.015" height="28.015" transform="matrix(-1 0 0 1 196.883 84.0302)" fill="#EAFAEC" fill-opacity="0.05"/>
</svg>
